<svg xmlns="http://www.w3.org/2000/svg" viewBox="0 0 1024 1024" role="img"><path d="M489.097 108.611c-73.428.992-231.423 13.046-319.803 94.026-65.609 65.227-88.533 161.39-91.203 280.476-2.29 118.63-4.96 341.393 209.794 402.08v92.31s-1.45 37 22.963 44.63c30.134 9.535 47.299-19.035 75.907-49.55l53.402-60.269c146.856 12.207 259.382-15.982 272.351-20.178 29.753-9.536 197.627-30.935 225.09-253.737 28.228-230.049-13.731-374.997-89.257-440.606l-.382-.076c-22.886-20.98-114.433-87.732-319.269-88.495 0 0-15.105-.954-39.593-.61zm2.555 64.732c20.789-.115 33.567.762 33.567.762 173.176.382 255.988 52.64 275.441 70.186 63.701 54.509 96.43 185.23 72.475 377.325-22.887 186.145-159.063 197.97-184.238 205.98-10.68 3.433-109.856 27.845-234.664 19.835 0 0-93.035 112.182-122.024 141.172-4.578 4.959-9.918 6.485-13.35 5.722-4.96-1.144-6.485-7.248-6.104-15.64l.763-153.302c-181.987-50.35-171.307-240.386-169.4-339.561 2.29-99.176 20.98-180.5 76.29-235.428 74.648-67.515 208.84-76.67 271.206-77.052zm13.732 99.175a11.405 11.405 0 00-11.443 11.367v.038a11.443 11.443 0 0011.443 11.444 214.791 214.791 0 01153.722 60.65c41.578 40.432 61.832 94.597 62.595 165.546a11.443 11.443 0 0011.444 11.443v-.343a11.443 11.443 0 0011.443-11.443 246.07 246.07 0 00-69.042-181.568c-45.391-44.247-102.684-67.134-170.2-67.134zm-150.823 26.32a36.428 36.428 0 00-23.459 4.577h-.457a180.977 180.977 0 00-43.79 35.856c-10.299 12.206-16.059 24.374-17.585 36.199a47.299 47.299 0 001.908 20.636l.763.381a523.418 523.418 0 0045.773 99.176 586.775 586.775 0 0088.495 120.956l1.144 1.526 1.526 1.144 1.144 1.144 1.145 1.145a595.166 595.166 0 00121.299 88.876c50.35 27.464 80.942 40.433 99.252 45.773v.382a54.342 54.342 0 0015.181 2.288 70.186 70.186 0 0042.035-18.004 172.256 172.256 0 0035.475-43.79v-.38c8.773-16.403 5.721-32.08-6.866-42.76a519.985 519.985 0 00-82.01-58.743c-19.455-10.68-39.29-4.196-47.3 6.484l-17.165 21.705c-8.773 10.68-24.794 9.154-24.794 9.154l-.458.382c-119.01-30.516-150.67-151.014-150.67-151.014s-1.526-16.402 9.536-24.794l21.36-17.165c10.3-8.392 17.547-28.227 6.485-47.68a515.788 515.788 0 00-58.742-82.011 32.156 32.156 0 00-19.225-11.443zm170.62 33.948a11.443 11.443 0 00.077 22.887 144.186 144.186 0 01101.082 43.866 133.506 133.506 0 0134.33 98.031 11.443 11.443 0 0011.444 11.405l.381.458a11.443 11.443 0 0011.443-11.443v-.038c1.145-45.392-12.969-83.537-40.814-114.052s-66.753-47.68-116.34-51.114a11.441 11.441 0 00-1.603 0zm18.691 61.756a11.658 11.658 0 10-.687 23.306c37.763 1.907 56.073 20.98 58.361 60.268a11.443 11.443 0 0011.444 11.062h.381a11.443 11.443 0 0011.082-11.793q-.006-.207-.02-.413c-2.67-51.113-30.515-79.76-80.103-82.43q-.23-.004-.458 0z"/></svg>